# xmcd
#
# Track frame offsets: 
#        150
#        4166
#        17424
#        29748
#        54658
#        67376
#        91141
#        105269
#        123985
#
# Disc length: 1943 seconds
#
# Revision: 0
# Processed by: cddbd v1.5.2PL0 Copyright (c) Steve Scherf et al.
# Submitted via: ExactAudioCopy v1.1
#
DISCID=6f079509
DTITLE=Eric Clapton and the Yardbirds - Eric Clapton and the Yardbirds
DYEAR=1900
DGENRE=Blues
TTITLE0=Introduction by Hamish Grimes
TTITLE1=Too Much Monkey Business
TTITLE2=Got Love If You Want It
TTITLE3=Smokestack Lightning
TTITLE4=Good Morning Little Schoolgirl
TTITLE5=Five Long Years
TTITLE6=Pretty Girl
TTITLE7=Louise
TTITLE8=I'm a Man
EXTD=
EXTT0=
EXTT1=
EXTT2=
EXTT3=
EXTT4=
EXTT5=
EXTT6=
EXTT7=
EXTT8=
PLAYORDER=
